<svg width="16" height="15" viewBox="0 0 16 15" fill="none" xmlns="http://www.w3.org/2000/svg">
<path d="M11.3334 8.33659C11.3334 8.88658 10.8874 9.33325 10.336 9.33325H10.3307C9.77937 9.33325 9.33337 8.88658 9.33337 8.33659V8.32992C9.33337 7.77992 9.77937 7.33325 10.3307 7.33325H10.336C10.8874 7.33325 11.3334 7.77992 11.3334 8.32992V8.33659ZM8.66671 6.67192C8.66671 7.03725 8.37071 7.33325 8.00537 7.33325H7.99471C7.62937 7.33325 7.33337 7.03725 7.33337 6.67192V6.66125C7.33337 6.29592 7.62937 5.99992 7.99471 5.99992H8.00537C8.37071 5.99992 8.66671 6.29592 8.66671 6.66125V6.67192ZM8.66671 10.0066C8.66671 10.3713 8.37137 10.6666 8.00671 10.6666H7.99337C7.62871 10.6666 7.33337 10.3713 7.33337 10.0066V9.99325C7.33337 9.62858 7.62871 9.33325 7.99337 9.33325H8.00671C8.37137 9.33325 8.66671 9.62858 8.66671 9.99325V10.0066ZM6.66671 8.34258C6.66671 8.88992 6.22271 9.33325 5.67604 9.33325H5.65737C5.11071 9.33325 4.66671 8.88992 4.66671 8.34258V8.32392C4.66671 7.77725 5.11071 7.33325 5.65737 7.33325H5.67604C6.22271 7.33325 6.66671 7.77725 6.66671 8.32392V8.34258ZM14.6667 3.99992L10 1.33325V2.66659L12 4.66658L10.6667 5.99992L8.00004 3.33325L5.33337 5.99992L4.00004 4.66658L6.00004 2.66659V1.33325L1.33337 3.99992L4.00004 7.33325L1.33337 9.99992L3.33337 12.6666V9.99992H4.66671L5.33337 13.3333L6.66671 14.6666V11.9999L8.00004 13.3333L9.33337 11.9999V14.6666L10.6667 13.3333L11.3334 9.99992H12.6667V12.6666L14.6667 9.99992L12 7.33325L14.6667 3.99992Z" fill="#AAABCA"/>
</svg>
