<svg width="16" height="15" viewBox="0 0 16 15" fill="none" xmlns="http://www.w3.org/2000/svg">
<path d="M12.3085 5.125V1.4085L9.4085 4L7.85 0.666504L6.2915 4L3.4 1.4085V5.125H0.666504L3.6915 7.6V10.1335C3.6915 10.617 3.8915 11.242 4.25 11.575L7.425 15.0835C7.575 15.242 7.775 15.3335 8 15.3335C8.225 15.3335 8.425 15.242 8.575 15.0835L11.7585 11.575C12.117 11.2415 12.317 10.625 12.317 10.1335V7.6L15.3335 5.125H12.3085ZM6.95 9.9585C5.0665 10.4085 4.5 6.8335 4.5 6.8335C7.95 8.792 6.95 9.9585 6.95 9.9585ZM8.9915 9.9585C8.9915 9.9585 8.25 8.6085 11.5 6.75C11.5 6.75 10.9335 10.4165 8.9915 9.9585Z" fill="#B3B4D0"/>
</svg>
